{
	"asset":{
		"generator":"Khronos glTF Blender I/O v4.0.43",
		"version":"2.0"
	},
	"extensionsUsed":[
		"KHR_materials_specular",
		"KHR_materials_ior"
	],
	"scene":0,
	"scenes":[
		{
			"name":"Scene",
			"nodes":[
				0
			]
		}
	],
	"nodes":[
		{
			"mesh":0,
			"name":"Lamp.001"
		}
	],
	"materials":[
		{
			"doubleSided":true,
			"extensions":{
				"KHR_materials_specular":{
					"specularFactor":0
				},
				"KHR_materials_ior":{
					"ior":1.4500000476837158
				}
			},
			"name":"default.001",
			"pbrMetallicRoughness":{
				"metallicFactor":0
			}
		}
	],
	"meshes":[
		{
			"name":"lamp_base_Boole2_antidamage_extr_Cap_22.001",
			"primitives":[
				{
					"attributes":{
						"POSITION":0,
						"NORMAL":1,
						"TEXCOORD_0":2
					},
					"indices":3,
					"material":0
				}
			]
		}
	],
	"accessors":[
		{
			"bufferView":0,
			"componentType":5126,
			"count":598937,
			"max":[
				1.671407699584961,
				7.360732555389404,
				3.847874641418457
			],
			"min":[
				-4.362028121948242,
				-4.512786865234375,
				-1.461885929107666
			],
			"type":"VEC3"
		},
		{
			"bufferView":1,
			"componentType":5126,
			"count":598937,
			"type":"VEC3"
		},
		{
			"bufferView":2,
			"componentType":5126,
			"count":598937,
			"type":"VEC2"
		},
		{
			"bufferView":3,
			"componentType":5125,
			"count":927312,
			"type":"SCALAR"
		}
	],
	"bufferViews":[
		{
			"buffer":0,
			"byteLength":7187244,
			"byteOffset":0,
			"target":34962
		},
		{
			"buffer":0,
			"byteLength":7187244,
			"byteOffset":7187244,
			"target":34962
		},
		{
			"buffer":0,
			"byteLength":4791496,
			"byteOffset":14374488,
			"target":34962
		},
		{
			"buffer":0,
			"byteLength":3709248,
			"byteOffset":19165984,
			"target":34963
		}
	],
	"buffers":[
		{
			"byteLength":22875232,
			"uri":"lamp.bin"
		}
	]
}
