{
	"asset":{
		"generator":"Khronos glTF Blender I/O v4.0.43",
		"version":"2.0"
	},
	"extensionsUsed":[
		"KHR_materials_specular",
		"KHR_materials_ior"
	],
	"scene":0,
	"scenes":[
		{
			"name":"Scene",
			"nodes":[
				0
			]
		}
	],
	"nodes":[
		{
			"mesh":0,
			"name":"Sofa.002"
		}
	],
	"materials":[
		{
			"doubleSided":true,
			"extensions":{
				"KHR_materials_specular":{
					"specularFactor":0
				},
				"KHR_materials_ior":{
					"ior":1.4500000476837158
				}
			},
			"name":"default.001",
			"pbrMetallicRoughness":{
				"metallicFactor":0
			}
		}
	],
	"meshes":[
		{
			"name":"s.001",
			"primitives":[
				{
					"attributes":{
						"POSITION":0,
						"NORMAL":1
					},
					"indices":2,
					"material":0
				}
			]
		}
	],
	"accessors":[
		{
			"bufferView":0,
			"componentType":5126,
			"count":245840,
			"max":[
				4.356914520263672,
				2.609379291534424,
				9.326826095581055
			],
			"min":[
				-3.3031787872314453,
				-2.932986259460449,
				-9.325687408447266
			],
			"type":"VEC3"
		},
		{
			"bufferView":1,
			"componentType":5126,
			"count":245840,
			"type":"VEC3"
		},
		{
			"bufferView":2,
			"componentType":5125,
			"count":900819,
			"type":"SCALAR"
		}
	],
	"bufferViews":[
		{
			"buffer":0,
			"byteLength":2950080,
			"byteOffset":0,
			"target":34962
		},
		{
			"buffer":0,
			"byteLength":2950080,
			"byteOffset":2950080,
			"target":34962
		},
		{
			"buffer":0,
			"byteLength":3603276,
			"byteOffset":5900160,
			"target":34963
		}
	],
	"buffers":[
		{
			"byteLength":9503436,
			"uri":"sofa.bin"
		}
	]
}
