{
	"asset":{
		"generator":"Khronos glTF Blender I/O v4.0.43",
		"version":"2.0"
	},
	"extensionsUsed":[
		"KHR_materials_specular",
		"KHR_materials_ior"
	],
	"scene":0,
	"scenes":[
		{
			"name":"Scene",
			"nodes":[
				0
			]
		}
	],
	"nodes":[
		{
			"mesh":0,
			"name":"Table.001"
		}
	],
	"materials":[
		{
			"doubleSided":true,
			"extensions":{
				"KHR_materials_specular":{
					"specularFactor":0
				},
				"KHR_materials_ior":{
					"ior":1.4500000476837158
				}
			},
			"name":"default.001",
			"pbrMetallicRoughness":{
				"metallicFactor":0
			}
		}
	],
	"meshes":[
		{
			"name":"\u0441\u0442\u0435\u043a\u043b\u043e.001",
			"primitives":[
				{
					"attributes":{
						"POSITION":0,
						"NORMAL":1,
						"TEXCOORD_0":2
					},
					"indices":3,
					"material":0
				}
			]
		}
	],
	"accessors":[
		{
			"bufferView":0,
			"componentType":5126,
			"count":958596,
			"max":[
				3.3736681938171387,
				1.2739334106445312,
				4.957989692687988
			],
			"min":[
				-3.478346824645996,
				-1.4158687591552734,
				-4.954270839691162
			],
			"type":"VEC3"
		},
		{
			"bufferView":1,
			"componentType":5126,
			"count":958596,
			"type":"VEC3"
		},
		{
			"bufferView":2,
			"componentType":5126,
			"count":958596,
			"type":"VEC2"
		},
		{
			"bufferView":3,
			"componentType":5125,
			"count":1671900,
			"type":"SCALAR"
		}
	],
	"bufferViews":[
		{
			"buffer":0,
			"byteLength":11503152,
			"byteOffset":0,
			"target":34962
		},
		{
			"buffer":0,
			"byteLength":11503152,
			"byteOffset":11503152,
			"target":34962
		},
		{
			"buffer":0,
			"byteLength":7668768,
			"byteOffset":23006304,
			"target":34962
		},
		{
			"buffer":0,
			"byteLength":6687600,
			"byteOffset":30675072,
			"target":34963
		}
	],
	"buffers":[
		{
			"byteLength":37362672,
			"uri":"table.bin"
		}
	]
}
