{
	"asset":{
		"generator":"Khronos glTF Blender I/O v4.0.43",
		"version":"2.0"
	},
	"extensionsUsed":[
		"KHR_materials_specular",
		"KHR_materials_ior"
	],
	"scene":0,
	"scenes":[
		{
			"name":"Scene",
			"nodes":[
				0
			]
		}
	],
	"nodes":[
		{
			"mesh":0,
			"name":"\u5186\u67f1"
		}
	],
	"materials":[
		{
			"doubleSided":true,
			"extensions":{
				"KHR_materials_specular":{
					"specularFactor":0
				},
				"KHR_materials_ior":{
					"ior":1.4500000476837158
				}
			},
			"name":"\u30de\u30c6\u30ea\u30a2\u30eb",
			"pbrMetallicRoughness":{
				"baseColorTexture":{
					"index":0
				},
				"metallicRoughnessTexture":{
					"index":1
				}
			}
		}
	],
	"meshes":[
		{
			"name":"\u5186\u67f1",
			"primitives":[
				{
					"attributes":{
						"POSITION":0,
						"NORMAL":1,
						"TEXCOORD_0":2
					},
					"indices":3,
					"material":0
				}
			]
		}
	],
	"textures":[
		{
			"sampler":0,
			"source":0
		},
		{
			"sampler":0,
			"source":1
		}
	],
	"images":[
		{
			"mimeType":"image/png",
			"name":"BaseColor",
			"uri":"BaseColor.png"
		},
		{
			"mimeType":"image/png",
			"name":"Metalness-Roughness",
			"uri":"Metalness-Roughness.png"
		}
	],
	"accessors":[
		{
			"bufferView":0,
			"componentType":5126,
			"count":883,
			"max":[
				0.7835952043533325,
				3.582066297531128,
				1.589978814125061
			],
			"min":[
				-0.7835952043533325,
				-1.439877986907959,
				-1.589978814125061
			],
			"type":"VEC3"
		},
		{
			"bufferView":1,
			"componentType":5126,
			"count":883,
			"type":"VEC3"
		},
		{
			"bufferView":2,
			"componentType":5126,
			"count":883,
			"type":"VEC2"
		},
		{
			"bufferView":3,
			"componentType":5123,
			"count":1131,
			"type":"SCALAR"
		}
	],
	"bufferViews":[
		{
			"buffer":0,
			"byteLength":10596,
			"byteOffset":0,
			"target":34962
		},
		{
			"buffer":0,
			"byteLength":10596,
			"byteOffset":10596,
			"target":34962
		},
		{
			"buffer":0,
			"byteLength":7064,
			"byteOffset":21192,
			"target":34962
		},
		{
			"buffer":0,
			"byteLength":2262,
			"byteOffset":28256,
			"target":34963
		}
	],
	"samplers":[
		{
			"magFilter":9729,
			"minFilter":9987
		}
	],
	"buffers":[
		{
			"byteLength":30520,
			"uri":"hammer.bin"
		}
	]
}
