{
	"asset":{
		"generator":"Khronos glTF Blender I/O v4.0.43",
		"version":"2.0"
	},
	"scene":0,
	"scenes":[
		{
			"name":"Scene",
			"nodes":[
				2
			]
		}
	],
	"nodes":[
		{
			"mesh":0,
			"name":"Knob",
			"scale":[
				0.5,
				0.5,
				1
			],
			"translation":[
				-0.824999988079071,
				-0.04000002145767212,
				0.015000000596046448
			]
		},
		{
			"children":[
				0
			],
			"mesh":1,
			"name":"Panel",
			"scale":[
				1,
				1,
				2
			],
			"translation":[
				0.44999998807907104,
				1,
				0.03999999910593033
			]
		},
		{
			"children":[
				1
			],
			"mesh":2,
			"name":"Frame",
			"scale":[
				1,
				1,
				0.5
			]
		}
	],
	"animations":[
		{
			"channels":[
				{
					"sampler":0,
					"target":{
						"node":2,
						"path":"rotation"
					}
				},
				{
					"sampler":1,
					"target":{
						"node":1,
						"path":"rotation"
					}
				},
				{
					"sampler":2,
					"target":{
						"node":1,
						"path":"scale"
					}
				},
				{
					"sampler":3,
					"target":{
						"node":0,
						"path":"rotation"
					}
				}
			],
			"name":"Open",
			"samplers":[
				{
					"input":16,
					"interpolation":"STEP",
					"output":17
				},
				{
					"input":18,
					"interpolation":"LINEAR",
					"output":19
				},
				{
					"input":18,
					"interpolation":"LINEAR",
					"output":20
				},
				{
					"input":18,
					"interpolation":"LINEAR",
					"output":21
				}
			]
		}
	],
	"materials":[
		{
			"doubleSided":true,
			"name":"metal",
			"pbrMetallicRoughness":{
				"baseColorFactor":[
					0.800000011920929,
					0.800000011920929,
					0.800000011920929,
					1
				],
				"roughnessFactor":0.4000000059604645
			}
		},
		{
			"doubleSided":true,
			"name":"wood",
			"pbrMetallicRoughness":{
				"baseColorFactor":[
					0.21567511558532715,
					0.11470752954483032,
					0.04821859672665596,
					1
				],
				"metallicFactor":0,
				"roughnessFactor":0.30000001192092896
			}
		}
	],
	"meshes":[
		{
			"name":"\u5186\u67f1.006",
			"primitives":[
				{
					"attributes":{
						"POSITION":0,
						"NORMAL":1,
						"TEXCOORD_0":2
					},
					"indices":3,
					"material":0
				}
			]
		},
		{
			"name":"\u7acb\u65b9\u4f53.001",
			"primitives":[
				{
					"attributes":{
						"POSITION":4,
						"NORMAL":5,
						"TEXCOORD_0":6
					},
					"indices":7,
					"material":1
				},
				{
					"attributes":{
						"POSITION":8,
						"NORMAL":9,
						"TEXCOORD_0":10
					},
					"indices":11,
					"material":0
				}
			]
		},
		{
			"name":"\u7acb\u65b9\u4f53",
			"primitives":[
				{
					"attributes":{
						"POSITION":12,
						"NORMAL":13,
						"TEXCOORD_0":14
					},
					"indices":15,
					"material":1
				}
			]
		}
	],
	"accessors":[
		{
			"bufferView":0,
			"componentType":5126,
			"count":388,
			"max":[
				0.24000099301338196,
				0.020000021904706955,
				0.020000478252768517
			],
			"min":[
				-0.020000478252768517,
				-0.020000016316771507,
				-0.09000048786401749
			],
			"type":"VEC3"
		},
		{
			"bufferView":1,
			"componentType":5126,
			"count":388,
			"type":"VEC3"
		},
		{
			"bufferView":2,
			"componentType":5126,
			"count":388,
			"type":"VEC2"
		},
		{
			"bufferView":3,
			"componentType":5123,
			"count":1128,
			"type":"SCALAR"
		},
		{
			"bufferView":4,
			"componentType":5126,
			"count":24,
			"max":[
				0,
				0.949999988079071,
				0
			],
			"min":[
				-0.8999999761581421,
				-1,
				-0.03999999910593033
			],
			"type":"VEC3"
		},
		{
			"bufferView":5,
			"componentType":5126,
			"count":24,
			"type":"VEC3"
		},
		{
			"bufferView":6,
			"componentType":5126,
			"count":24,
			"type":"VEC2"
		},
		{
			"bufferView":7,
			"componentType":5123,
			"count":36,
			"type":"SCALAR"
		},
		{
			"bufferView":8,
			"componentType":5126,
			"count":398,
			"max":[
				0.007499992847442627,
				0.699999988079071,
				0.013478320091962814
			],
			"min":[
				-0.8497593402862549,
				-0.75,
				-0.04500008746981621
			],
			"type":"VEC3"
		},
		{
			"bufferView":9,
			"componentType":5126,
			"count":398,
			"type":"VEC3"
		},
		{
			"bufferView":10,
			"componentType":5126,
			"count":398,
			"type":"VEC2"
		},
		{
			"bufferView":11,
			"componentType":5123,
			"count":1140,
			"type":"SCALAR"
		},
		{
			"bufferView":12,
			"componentType":5126,
			"count":52,
			"max":[
				0.5,
				2,
				0.05000000074505806
			],
			"min":[
				-0.5,
				0,
				-0.05000000074505806
			],
			"type":"VEC3"
		},
		{
			"bufferView":13,
			"componentType":5126,
			"count":52,
			"type":"VEC3"
		},
		{
			"bufferView":14,
			"componentType":5126,
			"count":52,
			"type":"VEC2"
		},
		{
			"bufferView":15,
			"componentType":5123,
			"count":84,
			"type":"SCALAR"
		},
		{
			"bufferView":16,
			"componentType":5126,
			"count":2,
			"max":[
				2.125
			],
			"min":[
				0.041666666666666664
			],
			"type":"SCALAR"
		},
		{
			"bufferView":17,
			"componentType":5126,
			"count":2,
			"type":"VEC4"
		},
		{
			"bufferView":18,
			"componentType":5126,
			"count":6,
			"max":[
				2.125
			],
			"min":[
				0.041666666666666664
			],
			"type":"SCALAR"
		},
		{
			"bufferView":19,
			"componentType":5126,
			"count":6,
			"type":"VEC4"
		},
		{
			"bufferView":20,
			"componentType":5126,
			"count":6,
			"type":"VEC3"
		},
		{
			"bufferView":21,
			"componentType":5126,
			"count":6,
			"type":"VEC4"
		}
	],
	"bufferViews":[
		{
			"buffer":0,
			"byteLength":4656,
			"byteOffset":0,
			"target":34962
		},
		{
			"buffer":0,
			"byteLength":4656,
			"byteOffset":4656,
			"target":34962
		},
		{
			"buffer":0,
			"byteLength":3104,
			"byteOffset":9312,
			"target":34962
		},
		{
			"buffer":0,
			"byteLength":2256,
			"byteOffset":12416,
			"target":34963
		},
		{
			"buffer":0,
			"byteLength":288,
			"byteOffset":14672,
			"target":34962
		},
		{
			"buffer":0,
			"byteLength":288,
			"byteOffset":14960,
			"target":34962
		},
		{
			"buffer":0,
			"byteLength":192,
			"byteOffset":15248,
			"target":34962
		},
		{
			"buffer":0,
			"byteLength":72,
			"byteOffset":15440,
			"target":34963
		},
		{
			"buffer":0,
			"byteLength":4776,
			"byteOffset":15512,
			"target":34962
		},
		{
			"buffer":0,
			"byteLength":4776,
			"byteOffset":20288,
			"target":34962
		},
		{
			"buffer":0,
			"byteLength":3184,
			"byteOffset":25064,
			"target":34962
		},
		{
			"buffer":0,
			"byteLength":2280,
			"byteOffset":28248,
			"target":34963
		},
		{
			"buffer":0,
			"byteLength":624,
			"byteOffset":30528,
			"target":34962
		},
		{
			"buffer":0,
			"byteLength":624,
			"byteOffset":31152,
			"target":34962
		},
		{
			"buffer":0,
			"byteLength":416,
			"byteOffset":31776,
			"target":34962
		},
		{
			"buffer":0,
			"byteLength":168,
			"byteOffset":32192,
			"target":34963
		},
		{
			"buffer":0,
			"byteLength":8,
			"byteOffset":32360
		},
		{
			"buffer":0,
			"byteLength":32,
			"byteOffset":32368
		},
		{
			"buffer":0,
			"byteLength":24,
			"byteOffset":32400
		},
		{
			"buffer":0,
			"byteLength":96,
			"byteOffset":32424
		},
		{
			"buffer":0,
			"byteLength":72,
			"byteOffset":32520
		},
		{
			"buffer":0,
			"byteLength":96,
			"byteOffset":32592
		}
	],
	"buffers":[
		{
			"byteLength":32688,
			"uri":"OpenAnimation.bin"
		}
	]
}
