{
  "accessors": [
    {
      "bufferView": 2,
      "componentType": 5126,
      "count": 65532,
      "max": [
        0.4803035259246826,
        0.49509039521217346,
        0.4943355321884155
      ],
      "min": [
        -0.46730679273605347,
        -0.49810275435447693,
        -0.4911994934082031
      ],
      "type": "VEC3"
    },
    {
      "bufferView": 2,
      "byteOffset": 786384,
      "componentType": 5126,
      "count": 65532,
      "max": [
        0.9995855689048767,
        0.9999778270721436,
        0.9998441934585571
      ],
      "min": [
        -0.9998531937599182,
        -0.9999343752861023,
        -0.9991446137428284
      ],
      "type": "VEC3"
    },
    {
      "bufferView": 3,
      "componentType": 5126,
      "count": 65532,
      "max": [
        0.9993067383766174,
        0.9981574416160583,
        0.9989892840385437,
        1.0
      ],
      "min": [
        -0.9997206926345825,
        -0.9990919232368469,
        -0.9999998211860657,
        -1.0
      ],
      "type": "VEC4"
    },
    {
      "bufferView": 1,
      "componentType": 5126,
      "count": 65532,
      "max": [
        0.9978323578834534,
        0.9830304384231567
      ],
      "min": [
        0.0090267863124609,
        0.008816726505756378
      ],
      "type": "VEC2"
    },
    {
      "bufferView": 1,
      "byteOffset": 524256,
      "componentType": 5126,
      "count": 65532,
      "max": [
        0.9650148153305054,
        0.7403532266616821
      ],
      "min": [
        0.0,
        0.0
      ],
      "type": "VEC2"
    },
    {
      "bufferView": 0,
      "componentType": 5125,
      "count": 119049,
      "type": "SCALAR"
    },
    {
      "bufferView": 2,
      "byteOffset": 1572768,
      "componentType": 5126,
      "count": 32119,
      "max": [
        0.48068004846572876,
        0.49509039521217346,
        0.494287371635437
      ],
      "min": [
        -0.44414955377578735,
        -0.49810275435447693,
        -0.4988059401512146
      ],
      "type": "VEC3"
    },
    {
      "bufferView": 2,
      "byteOffset": 1958196,
      "componentType": 5126,
      "count": 32119,
      "max": [
        0.9999427199363708,
        0.9999787211418152,
        0.9988179206848145
      ],
      "min": [
        -0.9813835620880127,
        -0.9999156594276428,
        -0.999896228313446
      ],
      "type": "VEC3"
    },
    {
      "bufferView": 3,
      "byteOffset": 1048512,
      "componentType": 5126,
      "count": 32119,
      "max": [
        0.9992222785949707,
        0.999955952167511,
        0.9975288510322571,
        1.0
      ],
      "min": [
        -0.9974370002746582,
        -0.9807831048965454,
        -0.9737619757652283,
        1.0
      ],
      "type": "VEC4"
    },
    {
      "bufferView": 1,
      "byteOffset": 1048512,
      "componentType": 5126,
      "count": 32119,
      "max": [
        0.9975916743278503,
        0.9830304384231567
      ],
      "min": [
        0.00902961939573288,
        0.3027478754520416
      ],
      "type": "VEC2"
    },
    {
      "bufferView": 1,
      "byteOffset": 1305464,
      "componentType": 5126,
      "count": 32119,
      "max": [
        0.0,
        0.0
      ],
      "min": [
        0.0,
        0.0
      ],
      "type": "VEC2"
    },
    {
      "bufferView": 0,
      "byteOffset": 476196,
      "componentType": 5125,
      "count": 48177,
      "type": "SCALAR"
    }
  ],
  "asset": {
    "extras": {
      "author": "kiyaha_jr (https://sketchfab.com/kiyaha_jr)",
      "license": "CC-BY-4.0 (http://creativecommons.org/licenses/by/4.0/)",
      "source": "https://sketchfab.com/3d-models/pbr-sphere-374d160899ff4462820a797751466433",
      "title": "PBR Sphere"
    },
    "generator": "Sketchfab-12.67.0",
    "version": "2.0"
  },
  "bufferViews": [
    {
      "buffer": 0,
      "byteLength": 668904,
      "name": "floatBufferViews",
      "target": 34963
    },
    {
      "buffer": 0,
      "byteLength": 1562416,
      "byteOffset": 668904,
      "byteStride": 8,
      "name": "floatBufferViews",
      "target": 34962
    },
    {
      "buffer": 0,
      "byteLength": 2343624,
      "byteOffset": 2231320,
      "byteStride": 12,
      "name": "floatBufferViews",
      "target": 34962
    },
    {
      "buffer": 0,
      "byteLength": 1562416,
      "byteOffset": 4574944,
      "byteStride": 16,
      "name": "floatBufferViews",
      "target": 34962
    }
  ],
  "buffers": [
    {
      "byteLength": 6137360,
      "uri": "scene.bin"
    }
  ],
  "images": [
    {
      "uri": "textures/sphere_baseColor.jpeg"
    },
    {
      "uri": "textures/sphere_metallicRoughness.png"
    },
    {
      "uri": "textures/sphere_normal.png"
    }
  ],
  "materials": [
    {
      "doubleSided": true,
      "name": "sphere",
      "normalTexture": {
        "index": 2,
        "scale": 0.6175685976
      },
      "occlusionTexture": {
        "index": 1
      },
      "pbrMetallicRoughness": {
        "baseColorTexture": {
          "index": 0
        },
        "metallicRoughnessTexture": {
          "index": 1
        }
      }
    }
  ],
  "meshes": [
    {
      "name": "SubstanceSphere_sphere_0",
      "primitives": [
        {
          "attributes": {
            "NORMAL": 1,
            "POSITION": 0,
            "TANGENT": 2,
            "TEXCOORD_0": 3,
            "TEXCOORD_1": 4
          },
          "indices": 5,
          "material": 0,
          "mode": 4
        }
      ]
    },
    {
      "name": "SubstanceSphere_sphere_0",
      "primitives": [
        {
          "attributes": {
            "NORMAL": 7,
            "POSITION": 6,
            "TANGENT": 8,
            "TEXCOORD_0": 9,
            "TEXCOORD_1": 10
          },
          "indices": 11,
          "material": 0,
          "mode": 4
        }
      ]
    }
  ],
  "nodes": [
    {
      "children": [
        1
      ],
      "matrix": [
        1.0,
        0.0,
        0.0,
        0.0,
        0.0,
        2.220446049250313e-16,
        -1.0,
        0.0,
        0.0,
        1.0,
        2.220446049250313e-16,
        0.0,
        0.0,
        0.0,
        0.0,
        1.0
      ],
      "name": "Sketchfab_model"
    },
    {
      "children": [
        2
      ],
      "matrix": [
        1.0,
        0.0,
        0.0,
        0.0,
        0.0,
        0.0,
        1.0,
        0.0,
        0.0,
        -1.0,
        0.0,
        0.0,
        0.0,
        0.0,
        0.0,
        1.0
      ],
      "name": "sphere_sampleScene_1cm.fbx"
    },
    {
      "children": [
        3
      ],
      "name": "RootNode"
    },
    {
      "children": [
        4,
        5
      ],
      "name": "SubstanceSphere"
    },
    {
      "mesh": 0,
      "name": "SubstanceSphere_sphere_0"
    },
    {
      "mesh": 1,
      "name": "SubstanceSphere_sphere_0"
    }
  ],
  "samplers": [
    {
      "magFilter": 9729,
      "minFilter": 9987,
      "wrapS": 10497,
      "wrapT": 10497
    }
  ],
  "scene": 0,
  "scenes": [
    {
      "name": "Sketchfab_Scene",
      "nodes": [
        0
      ]
    }
  ],
  "textures": [
    {
      "sampler": 0,
      "source": 0
    },
    {
      "sampler": 0,
      "source": 1
    },
    {
      "sampler": 0,
      "source": 2
    }
  ]
}
